<?xml version="1.0" standalone="no"?>
<!DOCTYPE svg PUBLIC "-//W3C//DTD SVG 20010904//EN"
 "http://www.w3.org/TR/2001/REC-SVG-20010904/DTD/svg10.dtd">
<svg version="1.0" xmlns="http://www.w3.org/2000/svg"
 width="1792.000000pt" height="1920.000000pt" viewBox="0 0 1792.000000 1920.000000"
 preserveAspectRatio="xMidYMid meet">
<metadata>
Created by potrace 1.16, written by Peter Selinger 2001-2019
</metadata>
<g transform="translate(0.000000,1920.000000) scale(0.100000,-0.100000)"
fill="#000000" stroke="none">
<path d="M3122 17712 c-10 -7 -12 -542 -12 -2773 0 -2621 1 -2765 17 -2777 14
-10 67 -12 226 -10 195 3 210 4 223 23 11 14 13 29 8 50 -4 17 -8 52 -10 78
-3 72 -11 77 -123 77 -62 0 -101 4 -109 12 -17 17 -17 5069 0 5086 9 9 647 12
2809 12 2533 0 2799 -1 2813 -16 15 -14 16 -160 15 -1479 0 -806 2 -1469 6
-1475 8 -14 98 -13 129 1 34 16 40 50 31 183 -9 154 -13 149 152 150 93 1 135
5 146 14 23 19 51 122 38 135 -7 7 -63 10 -153 8 -106 -2 -147 1 -160 11 -16
12 -18 80 -19 1018 -1 897 0 1008 14 1034 14 27 14 32 0 59 -11 22 -17 72 -21
177 -4 129 -3 148 12 163 16 16 114 17 1490 17 1203 0 1475 -2 1490 -13 17
-12 18 -28 15 -164 -4 -140 -6 -154 -27 -183 l-24 -32 24 -25 23 -25 3 -478 3
-479 -22 -12 c-30 -15 -341 -8 -362 9 -21 17 -23 926 -2 958 17 27 54 35 183
38 99 3 123 8 108 23 -8 8 -348 4 -356 -4 -2 -2 3 -18 13 -34 15 -28 17 -73
17 -504 0 -459 -1 -475 -19 -485 -12 -6 -101 -10 -221 -10 l-200 0 -10 -26
c-6 -15 -10 -222 -10 -518 0 -414 -2 -495 -14 -505 -11 -9 -114 -12 -387 -10
-367 1 -373 1 -382 -19 -12 -26 0 -107 17 -121 7 -6 55 -14 107 -18 l94 -8 3
-159 c1 -97 7 -165 13 -173 8 -8 35 -13 78 -13 l68 0 -1 164 c-1 109 3 169 10
176 8 8 202 11 691 11 508 0 686 4 704 13 22 11 25 19 31 111 7 113 3 122 -55
132 -60 9 -85 -2 -97 -46 -6 -21 -17 -41 -24 -44 -29 -11 -669 -7 -683 5 -18
15 -19 848 -1 866 17 17 679 17 696 0 7 -7 12 -27 12 -45 0 -42 24 -55 97 -51
l56 3 -2 828 c-2 626 1 832 10 843 17 21 2291 21 2308 0 8 -10 11 -399 11
-1474 -1 -1216 -3 -1463 -15 -1478 -11 -16 -11 -21 1 -35 12 -14 14 -90 11
-520 -2 -277 -5 -508 -5 -514 -1 -5 1 -47 4 -93 4 -58 2 -87 -6 -97 -11 -13
-97 -15 -631 -15 -692 0 -658 4 -644 -69 16 -86 34 -93 233 -90 124 2 155 0
163 -12 5 -8 9 -281 9 -636 l-1 -622 -22 -7 c-12 -4 -656 -7 -1432 -6 -1317 1
-1411 3 -1422 19 -10 13 -12 152 -11 622 1 333 5 614 10 623 7 15 34 17 231
20 171 2 228 6 240 17 25 20 41 89 28 118 l-11 23 -228 0 c-181 0 -232 3 -248
14 -17 13 -19 27 -19 118 l0 103 -43 9 c-25 5 -55 5 -75 0 l-32 -10 -5 -534
c-3 -294 -9 -541 -13 -547 -6 -9 -43 -13 -126 -13 -83 0 -122 -4 -128 -12 -13
-17 -25 -111 -17 -132 5 -14 25 -16 133 -16 85 0 131 -4 139 -12 9 -9 12 -293
12 -1218 0 -1064 -2 -1208 -15 -1227 -14 -20 -14 -23 2 -31 10 -5 51 -12 91
-16 76 -6 79 -5 73 42 -1 6 5 27 14 46 13 28 14 39 5 56 -9 16 -12 160 -11
531 0 280 3 514 6 519 4 7 158 10 428 9 579 -1 553 -2 571 17 18 18 22 107 6
149 -10 26 -11 27 -83 20 -39 -3 -260 -8 -489 -11 l-417 -4 -13 22 c-19 33
-19 488 0 511 12 14 58 16 413 16 219 0 406 -2 414 -5 10 -4 15 -20 15 -51 0
-73 10 -83 85 -83 74 0 85 11 85 78 0 22 6 45 14 51 21 18 2701 14 2716 -4 7
-9 9 -126 6 -381 -2 -203 -4 -380 -4 -394 1 -14 1 -695 2 -1514 l1 -1490 -30
-8 c-16 -4 -108 -4 -205 0 -257 10 -976 0 -991 -15 -20 -20 -23 -100 -5 -128
l16 -25 598 0 c452 0 601 -3 610 -12 18 -18 17 -2731 -1 -2746 -8 -7 -111 -12
-290 -14 l-276 -3 -67 -65 c-88 -87 -91 -96 -43 -141 29 -27 39 -44 39 -66 0
-58 63 -59 129 -3 l47 40 336 0 c271 0 338 3 347 14 16 19 16 13013 0 13033
-10 11 -966 13 -5858 13 -3215 0 -5852 -4 -5859 -8z"/>
<path d="M9214 17111 c-2 -2 -4 -8 -4 -13 0 -4 507 -8 1127 -8 735 0 1124 3
1117 10 -9 9 -2230 20 -2240 11z"/>
<path d="M10055 16431 c-41 -17 -46 -34 -43 -142 3 -103 3 -104 28 -104 17 0
26 6 28 20 12 80 28 85 72 20 22 -33 38 -45 55 -45 28 0 31 14 10 50 -19 33
-19 70 1 98 31 44 44 28 44 -53 0 -91 12 -102 110 -107 63 -3 65 -2 65 22 0
22 -5 25 -42 28 -77 6 -86 58 -11 64 56 4 58 28 3 44 -65 18 -56 59 15 66 27
2 35 7 35 23 0 17 -8 20 -58 23 -64 3 -101 -12 -112 -48 -9 -28 -24 -25 -55
11 -21 26 -34 32 -75 35 -28 2 -59 0 -70 -5z m85 -56 c18 -21 5 -45 -25 -45
-14 0 -28 7 -31 15 -7 17 12 45 31 45 7 0 18 -7 25 -15z"/>
<path d="M5898 15443 c-34 -5 -37 -13 -39 -129 -1 -84 1 -99 17 -111 16 -12
107 -20 144 -13 8 1 32 2 53 2 29 0 41 5 54 24 22 35 90 34 123 -1 41 -43 110
-28 110 25 0 41 27 39 38 -2 7 -28 13 -33 38 -33 20 0 32 7 39 23 13 29 31 28
39 -4 5 -19 12 -25 29 -22 21 3 22 8 25 110 3 104 2 108 -22 123 -19 13 -29
14 -45 5 -19 -10 -26 -24 -33 -75 -2 -12 -11 -20 -23 -20 -15 0 -24 11 -34 43
-15 50 -50 74 -76 52 -11 -9 -15 -33 -15 -96 0 -69 -3 -84 -15 -84 -9 0 -18 8
-21 18 -3 9 -14 37 -24 62 -11 25 -21 54 -22 65 -3 21 -47 41 -70 32 -8 -3
-29 -43 -47 -89 -46 -121 -45 -120 -127 -111 -60 7 -69 11 -69 28 0 16 8 21
37 23 20 2 42 10 48 17 17 21 5 45 -18 38 -28 -7 -62 14 -62 37 0 17 7 20 50
20 37 0 52 4 57 16 3 9 0 20 -8 25 -14 9 -80 10 -131 2z m302 -128 c0 -8 -7
-15 -15 -15 -8 0 -15 7 -15 15 0 8 7 15 15 15 8 0 15 -7 15 -15z"/>
<path d="M12410 14629 c-13 -6 -28 -15 -32 -22 -4 -7 -8 -58 -8 -115 0 -86 3
-104 16 -109 26 -10 49 11 52 46 3 27 7 32 25 29 12 -2 33 -20 46 -40 16 -26
32 -38 47 -38 32 0 36 12 13 48 -24 40 -24 63 -1 93 13 15 25 20 37 15 15 -6
17 -15 11 -71 -6 -60 -5 -65 18 -80 17 -12 43 -15 92 -13 61 3 69 5 69 23 0
17 -8 21 -50 25 -45 5 -50 7 -50 30 0 22 5 26 42 31 24 3 46 8 50 12 13 13
-15 29 -53 30 -36 2 -39 4 -39 32 0 28 2 30 45 33 53 4 68 15 50 37 -8 10 -30
15 -69 15 -59 0 -101 -19 -101 -46 0 -29 -28 -24 -63 11 -30 30 -42 35 -78 34
-24 0 -55 -5 -69 -10z m88 -51 c7 -7 12 -20 12 -30 0 -13 -8 -18 -30 -18 -25
0 -30 4 -30 23 0 37 24 49 48 25z"/>
<path d="M13455 14634 c-6 -2 -37 -7 -70 -12 l-60 -7 -16 -50 c-22 -69 -68
-75 -69 -8 0 31 -43 78 -63 70 -23 -9 -21 -44 3 -92 11 -22 20 -45 20 -53 0
-7 12 -34 26 -58 22 -37 31 -45 53 -42 22 3 30 14 57 88 44 118 64 120 64 7 0
-56 4 -88 13 -94 21 -18 142 -24 163 -9 27 21 2 46 -46 46 -40 0 -66 20 -56
45 3 9 18 15 39 15 19 0 40 6 46 14 14 17 8 21 -42 30 -70 13 -53 66 20 66 37
0 56 25 32 41 -14 9 -95 11 -114 3z"/>
<path d="M8992 13481 c-11 -7 -13 -117 -13 -595 1 -498 -1 -592 -14 -622 -13
-32 -13 -39 0 -64 20 -39 22 -726 3 -753 -12 -14 -99 -17 -960 -22 l-946 -7
-12 21 c-7 15 -9 133 -6 398 2 208 5 385 5 393 3 30 -12 125 -21 138 -8 9
-243 12 -1113 12 -870 0 -1105 -3 -1112 -12 -6 -7 -13 -51 -16 -97 -9 -118 -6
-121 134 -121 l107 0 5 -27 c3 -16 6 -297 6 -626 0 -329 3 -602 6 -608 4 -5
23 -9 43 -9 36 0 92 -11 123 -24 9 -4 26 3 43 19 l28 26 -4 164 c-2 113 1 168
8 175 7 7 56 13 125 14 63 1 120 5 127 10 9 5 12 18 9 35 -16 75 -25 112 -29
117 -3 3 -53 5 -111 5 -81 0 -108 3 -118 15 -9 11 -11 62 -10 192 2 97 3 186
3 197 0 11 -3 92 -7 180 -5 108 -4 169 4 188 l11 27 784 0 785 0 12 -22 c8
-16 10 -67 5 -182 -4 -89 -7 -170 -6 -181 0 -11 3 -101 6 -201 5 -160 4 -183
-11 -197 -14 -14 -39 -17 -150 -17 -127 0 -135 -1 -149 -22 -17 -24 -20 -89
-7 -123 8 -19 17 -20 155 -20 164 0 171 -3 162 -66 -9 -58 8 -71 89 -67 l70 3
3 55 c2 30 6 58 10 62 4 3 107 8 230 10 190 2 224 1 232 -12 6 -9 10 -277 10
-676 0 -535 -3 -664 -13 -672 -14 -12 -438 -9 -457 3 -6 3 -10 48 -10 99 0 58
-4 96 -12 104 -18 18 -123 15 -138 -3 -10 -12 -13 -60 -11 -187 1 -95 4 -175
7 -180 3 -4 509 -8 1124 -8 l1119 0 12 21 c17 32 8 227 -11 240 -19 13 -117 4
-136 -12 -8 -6 -14 -22 -14 -35 0 -55 9 -54 -660 -54 -466 0 -619 3 -628 12
-15 15 -18 1343 -3 1352 5 3 291 7 635 8 495 1 628 -1 641 -12 12 -10 15 -34
15 -111 0 -119 8 -129 107 -129 l63 0 -1 601 c-1 492 2 603 13 611 7 5 60 8
118 6 102 -2 105 -1 118 23 14 27 9 104 -9 125 -8 10 -40 14 -113 14 -66 0
-106 4 -114 12 -9 9 -12 143 -12 539 0 466 -2 529 -16 543 -17 17 -118 22
-142 7z"/>
<path d="M12423 13120 c-12 -5 -26 -18 -32 -29 -25 -47 -5 -79 73 -116 51 -25
61 -55 18 -55 -16 0 -35 7 -42 15 -9 10 -24 13 -55 8 l-44 -6 -11 42 c-6 22
-22 64 -36 91 -22 44 -29 51 -52 48 -20 -2 -32 -13 -46 -43 -55 -115 -74 -194
-50 -202 6 -2 25 8 42 22 38 32 72 32 110 0 32 -27 52 -31 69 -14 7 7 25 5 61
-6 61 -20 113 -8 139 31 15 24 43 33 43 14 0 -5 9 -19 21 -31 25 -25 49 -11
49 30 0 33 17 51 46 51 23 0 34 -17 34 -54 0 -21 17 -46 31 -46 4 0 15 7 23
16 12 12 16 38 16 114 0 90 -2 100 -21 110 -24 13 -49 -2 -49 -30 0 -35 -12
-50 -41 -50 -23 0 -30 5 -34 28 -9 41 -20 57 -41 57 -17 0 -19 -9 -22 -78 -3
-93 -16 -104 -61 -55 -34 37 -38 53 -16 62 21 8 19 42 -5 66 -21 21 -77 26
-117 10z m78 -50 c22 -12 26 -40 5 -40 -28 0 -46 12 -46 31 0 21 12 24 41 9z"/>
<path d="M8098 11958 c-14 -10 -18 -33 -20 -120 -2 -74 1 -111 9 -119 19 -19
43 7 43 47 0 49 29 45 74 -11 34 -41 76 -60 76 -35 0 13 37 13 45 0 12 -19 45
9 45 38 0 38 19 60 55 64 22 2 30 8 30 23 0 15 -8 21 -35 25 -27 4 -35 10 -35
25 0 16 8 21 45 25 31 3 46 10 48 21 4 19 -24 29 -85 29 -59 0 -85 -27 -82
-83 5 -85 -1 -147 -13 -147 -14 0 -58 59 -58 77 0 5 9 18 20 28 27 24 26 76
-1 101 -26 23 -136 32 -161 12z m101 -47 c23 -15 5 -41 -29 -41 -22 0 -30 5
-30 18 0 32 28 42 59 23z"/>
<path d="M7315 10886 c-48 -25 -60 -36 -60 -56 0 -19 7 -26 34 -32 18 -5 51
-20 72 -34 70 -44 45 -104 -44 -104 -40 0 -57 -15 -57 -52 0 -15 -5 -38 -11
-52 -23 -49 25 -131 70 -119 24 6 28 -12 7 -39 -16 -22 -30 -23 -46 -3 -10 12
-16 13 -26 4 -23 -19 -16 -53 16 -84 l30 -29 30 29 c17 16 30 35 30 43 0 7 8
12 18 10 20 -4 29 -45 13 -61 -6 -6 -11 -15 -11 -20 0 -5 14 4 31 21 26 25 30
36 25 59 -4 15 -9 42 -12 58 -11 64 -15 75 -29 75 -17 0 -45 50 -45 79 0 15
10 23 39 31 29 8 41 17 45 36 9 34 -3 124 -20 151 -18 28 -17 63 1 87 35 46
-16 47 -100 2z"/>
<path d="M3463 10473 c-27 -10 -11 -43 49 -101 91 -89 87 -92 -125 -92 -186 0
-197 -3 -197 -51 0 -56 17 -61 194 -59 89 1 167 2 174 1 26 -2 9 -31 -55 -94
-60 -58 -65 -67 -53 -82 11 -13 25 -16 64 -12 47 4 53 8 158 114 64 65 108
118 108 129 0 20 -191 223 -229 243 -20 11 -66 13 -88 4z"/>
<path d="M12668 9864 c-30 -16 -48 -43 -48 -71 0 -22 49 -62 95 -79 22 -8 30
-17 30 -35 0 -32 -30 -37 -60 -9 -16 15 -30 20 -45 15 -30 -9 -56 17 -75 76
-20 58 -50 99 -74 99 -22 0 -51 -31 -51 -54 0 -9 -12 -42 -26 -72 -34 -73 -37
-118 -7 -122 15 -2 25 5 35 25 19 41 69 44 104 6 21 -22 35 -28 72 -29 26 -1
68 -5 94 -9 45 -7 49 -6 83 28 32 32 34 38 24 64 -16 43 -37 61 -80 68 -29 5
-39 11 -39 26 0 22 38 27 57 8 16 -16 43 -4 43 20 0 22 -56 61 -86 61 -11 -1
-31 -7 -46 -16z m-158 -119 c0 -8 -7 -15 -15 -15 -8 0 -15 7 -15 15 0 8 7 15
15 15 8 0 15 -7 15 -15z"/>
<path d="M5046 9631 c-3 -5 -6 -1846 -6 -4092 0 -3264 2 -4084 12 -4091 20
-12 1456 -10 1463 2 10 16 6 1183 -4 1193 -5 5 -30 1 -55 -7 -26 -9 -70 -16
-99 -16 -29 0 -58 -5 -65 -12 -9 -9 -12 -126 -12 -463 0 -337 -3 -454 -12
-463 -14 -14 -954 -17 -976 -3 -11 6 -14 233 -17 1189 -3 1040 -2 1184 11
1197 13 13 82 15 493 15 358 0 480 -3 489 -12 8 -8 12 -68 12 -204 0 -166 2
-193 17 -205 18 -15 156 -25 198 -15 l25 6 0 369 c0 327 2 370 16 375 9 3 112
6 229 6 195 0 215 2 224 18 6 12 5 28 -5 51 -8 18 -14 57 -14 86 0 89 15 85
-345 85 -272 0 -316 -2 -329 -16 -13 -13 -16 -44 -16 -188 0 -120 -4 -176 -12
-184 -9 -9 -131 -12 -489 -12 l-478 0 -16 22 c-14 21 -15 284 -15 2691 0 1468
-2 2672 -5 2678 -8 12 -212 12 -219 0z"/>
<path d="M12510 6527 c-24 -12 -25 -17 -28 -110 -4 -130 0 -137 87 -137 65 0
71 2 95 31 14 17 26 37 26 45 0 8 6 14 14 14 10 0 16 -13 18 -37 2 -27 8 -39
21 -41 38 -8 47 15 45 120 -1 83 -4 101 -19 109 -23 12 -49 -13 -49 -47 0 -34
-26 -30 -39 6 -17 51 -112 77 -171 47z m108 -60 c19 -23 25 -67 12 -97 -12
-30 -49 -48 -69 -35 -12 7 -15 127 -4 138 11 12 50 8 61 -6z"/>
<path d="M10664 4919 c-4 -8 -7 -67 -5 -132 2 -81 -1 -123 -9 -133 -10 -12
-67 -14 -346 -14 -183 0 -344 -4 -357 -9 -22 -9 -25 -17 -29 -83 -3 -40 -9
-80 -12 -89 -4 -9 1 -25 11 -37 18 -21 22 -21 486 -23 394 -2 470 0 478 12 5
8 9 69 9 136 0 144 -3 140 109 141 l74 1 72 -70 c56 -54 78 -69 101 -69 39 0
49 8 63 52 8 24 24 45 47 58 19 12 34 29 34 38 0 10 -47 65 -105 122 l-105
105 -254 3 c-202 3 -255 1 -262 -9z"/>
<path d="M8006 4624 c-12 -12 -16 -37 -16 -107 0 -51 4 -98 9 -106 7 -11 48
-13 202 -12 223 2 246 9 235 64 -4 18 -9 59 -12 92 -4 38 -12 65 -22 73 -11 8
-67 12 -198 12 -153 0 -185 -3 -198 -16z"/>
<path d="M11310 4541 c0 -11 8 -22 18 -25 23 -8 112 -92 112 -105 0 -6 9 -15
20 -21 11 -6 20 -17 20 -25 0 -7 9 -17 20 -20 16 -5 20 -15 20 -53 0 -47 2
-49 99 -146 l100 -99 168 0 c92 0 178 3 190 7 27 9 37 49 22 93 -6 20 -9 52
-6 73 3 21 0 43 -6 49 -7 7 -59 11 -135 11 l-123 0 -74 70 c-41 39 -80 70 -88
70 -8 0 -26 -15 -41 -34 -47 -62 -54 -59 -175 63 -107 109 -141 131 -141 92z"/>
<path d="M13835 4466 c-36 -35 -65 -68 -65 -75 0 -6 -14 -11 -31 -11 -23 0
-41 9 -65 35 -18 19 -41 35 -50 35 -10 0 -57 -38 -105 -85 l-86 -85 -141 0
c-102 0 -143 -3 -149 -12 -4 -7 -9 -35 -10 -63 -1 -27 -4 -68 -8 -91 -5 -29
-3 -43 8 -52 16 -14 310 -27 364 -17 37 7 117 74 216 182 42 47 57 71 57 93 0
29 4 34 120 157 31 33 38 53 20 53 -6 0 -40 -29 -75 -64z"/>
<path d="M6120 3321 c-22 -6 -26 -13 -31 -71 -4 -35 -4 -87 0 -115 5 -45 8
-50 31 -50 21 0 26 6 30 35 7 48 30 49 68 1 30 -38 36 -40 85 -41 28 0 88 -1
132 -2 74 -3 80 -2 80 17 0 17 -8 20 -53 23 -35 2 -55 8 -59 18 -8 21 16 44
47 44 30 0 59 25 44 40 -5 5 -25 10 -44 12 -27 2 -36 8 -38 26 -3 19 1 22 35
22 46 0 68 13 60 34 -5 13 -21 16 -76 16 -71 0 -101 -14 -101 -46 0 -22 -38
-17 -45 7 -4 11 -18 24 -32 30 -28 10 -95 10 -133 0z m105 -66 c0 -12 -8 -21
-20 -23 -28 -3 -49 13 -42 33 10 25 62 16 62 -10z m103 -73 c2 -42 0 -54 -14
-59 -19 -7 -54 28 -54 54 0 23 33 63 50 60 11 -1 16 -17 18 -55z"/>
<path d="M9272 3033 c-15 -6 -67 -109 -77 -152 -4 -17 -15 -36 -25 -41 -26
-14 -103 -13 -118 2 -7 7 -12 41 -12 84 0 40 -3 79 -6 88 -7 19 -35 21 -52 4
-17 -17 -16 -189 1 -212 16 -22 102 -38 135 -25 13 5 39 9 58 9 24 0 41 7 56
25 30 34 69 32 111 -5 46 -40 106 -42 135 -5 26 33 57 32 86 -2 20 -24 26 -25
40 -14 21 18 20 22 -9 65 -30 44 -32 87 -5 111 24 22 26 63 3 72 -11 4 -23 -3
-37 -20 -12 -15 -28 -27 -36 -27 -8 0 -24 12 -36 27 -14 17 -26 24 -37 20 -24
-9 -21 -38 8 -77 31 -41 31 -45 3 -87 -33 -47 -55 -43 -79 15 -61 144 -72 159
-107 145z m28 -128 c0 -8 -7 -15 -15 -15 -8 0 -15 7 -15 15 0 8 7 15 15 15 8
0 15 -7 15 -15z"/>
</g>
</svg>
