<?xml version="1.0" standalone="no"?>
<!DOCTYPE svg PUBLIC "-//W3C//DTD SVG 20010904//EN"
 "http://www.w3.org/TR/2001/REC-SVG-20010904/DTD/svg10.dtd">
<svg version="1.0" xmlns="http://www.w3.org/2000/svg"
 width="1792.000000pt" height="1920.000000pt" viewBox="0 0 1792.000000 1920.000000"
 preserveAspectRatio="xMidYMid meet">
<metadata>
Created by potrace 1.16, written by Peter Selinger 2001-2019
</metadata>
<g transform="translate(0.000000,1920.000000) scale(0.100000,-0.100000)"
fill="#000000" stroke="none">
<path d="M2446 17694 c-15 -14 -16 -764 -16 -8108 0 -6796 2 -8095 14 -8105
10 -8 723 -10 2702 -9 l2689 3 3 715 c2 587 0 719 -11 734 -12 17 -19 18 -63
7 -27 -6 -63 -11 -79 -9 -51 4 -55 -4 -55 -113 0 -146 9 -139 -175 -139 -148
0 -154 -1 -169 -22 -18 -26 -20 -65 -6 -102 l10 -26 159 0 c125 0 161 -3 170
-14 18 -22 11 -437 -8 -459 -12 -15 -207 -17 -2476 -17 -2213 0 -2464 2 -2476
16 -17 21 -14 455 4 466 7 4 82 8 167 8 85 0 160 4 167 8 10 6 42 85 43 104 0
4 -13 14 -30 23 -22 12 -65 15 -189 15 -89 0 -162 4 -166 9 -3 6 -5 1100 -5
2432 0 1917 3 2425 13 2431 6 4 242 8 522 8 384 0 514 3 523 12 15 15 16 102
2 128 -10 18 -31 19 -527 19 -600 -1 -547 -12 -535 110 3 42 6 90 5 106 -2 55
-4 1178 -5 2401 0 287 3 527 6 533 10 15 2062 16 2072 0 8 -14 9 -885 0 -925
-5 -23 -2 -34 14 -49 16 -15 38 -18 127 -19 60 -1 118 2 131 6 31 11 45 51 32
98 -11 41 -24 50 -75 50 -18 0 -38 6 -44 13 -6 8 -14 72 -17 143 -5 107 -3
132 9 149 15 20 29 20 584 22 354 2 574 -1 583 -7 12 -8 15 -35 13 -150 0 -77
-4 -147 -7 -155 -4 -12 -25 -15 -95 -15 -103 0 -111 -6 -111 -83 0 -61 15 -70
101 -68 95 3 121 -14 117 -72 -3 -35 0 -43 22 -54 14 -7 44 -13 67 -13 75 0
73 -17 73 502 0 445 -1 459 -20 478 -17 17 -28 19 -63 14 -75 -12 -77 -15 -77
-109 0 -63 -4 -87 -16 -99 -14 -14 -78 -16 -590 -14 -481 3 -576 5 -583 17 -5
8 -8 516 -8 1135 l2 1121 584 3 c437 2 587 -1 598 -10 8 -6 13 -25 12 -42 -1
-17 -1 -66 0 -109 l1 -78 35 -15 c46 -19 89 -18 106 3 9 10 16 55 19 132 l5
116 68 5 c84 6 97 20 97 99 l0 56 -656 -3 c-481 -2 -660 1 -670 9 -9 7 -14 33
-14 71 l0 59 -67 -7 c-81 -8 -93 -16 -93 -61 0 -63 -12 -73 -88 -73 -89 0 -97
-6 -98 -77 -3 -223 -4 -715 -3 -1217 0 -325 -3 -592 -8 -597 -12 -12 -2053
-13 -2064 -2 -10 10 -14 4057 -4 4073 9 14 1193 11 1202 -3 4 -7 6 -163 4
-348 -3 -303 -1 -337 14 -352 13 -14 37 -17 131 -17 142 0 154 5 154 68 0 63
-15 82 -70 89 -25 3 -50 10 -57 15 -16 12 -17 526 -2 545 17 19 861 19 878 0
13 -17 13 -513 -1 -539 -6 -12 -21 -18 -47 -18 -53 0 -76 -27 -73 -87 2 -59
15 -73 68 -73 33 0 46 -5 54 -19 6 -11 10 -87 10 -174 0 -117 3 -157 13 -166
20 -16 112 -18 130 -2 15 11 16 113 14 984 l-2 972 -72 3 c-88 4 -85 9 -85
-169 0 -121 -1 -132 -23 -157 l-23 -27 19 -48 c26 -64 28 -277 3 -301 -14 -14
-129 -16 -1118 -16 -1018 0 -1105 1 -1117 17 -17 20 -15 233 3 306 9 38 9 52
0 68 -10 15 -12 214 -12 867 1 466 -2 865 -5 888 -13 80 -113 74 1140 74
l1114 0 12 -21 c7 -15 9 -63 5 -153 -7 -157 -7 -178 2 -281 6 -71 10 -81 32
-92 14 -7 48 -12 75 -11 l50 3 3 264 c1 175 6 269 13 278 16 19 5436 20 5462
0 16 -11 17 -78 17 -999 0 -777 3 -989 13 -995 6 -4 39 -10 72 -14 33 -4 68
-10 77 -14 12 -4 26 2 43 19 l26 26 -1 460 c-1 253 1 464 5 470 4 6 94 10 250
10 231 0 245 1 255 19 12 23 13 170 2 188 -18 28 -69 34 -313 32 -136 -1 -252
2 -258 5 -8 5 -11 126 -11 391 0 331 2 386 15 399 14 13 135 15 1042 16 755 0
1029 -3 1039 -11 19 -15 21 -784 3 -795 -7 -4 -124 -7 -262 -6 -137 0 -260 -4
-273 -8 -26 -10 -31 -26 -37 -124 -8 -113 -35 -106 412 -106 307 0 381 3 390
14 8 9 11 183 12 615 1 559 -1 604 -17 622 -17 19 -106 19 -5305 19 -4794 0
-5289 -1 -5303 -16z m1522 -15693 c680 1 1253 1 1272 1 19 0 553 0 1186 -1
1106 0 1152 -1 1174 -19 21 -17 23 -28 27 -143 3 -75 0 -130 -6 -139 -9 -13
-297 -15 -2471 -18 -1693 -1 -2467 1 -2481 8 -17 10 -19 22 -19 140 0 71 5
141 10 156 9 23 15 26 40 20 17 -3 587 -5 1268 -5z"/>
<path d="M11797 17217 c-41 -24 -51 -46 -51 -119 0 -39 5 -53 30 -79 28 -29
32 -31 93 -27 53 3 67 8 79 26 19 29 40 28 52 -3 17 -44 60 -25 60 27 0 41 32
36 69 -10 l30 -37 117 -3 c85 -2 120 1 125 10 13 21 -12 38 -57 38 -37 0 -44
3 -44 20 0 17 7 20 39 20 43 0 68 19 49 38 -7 7 -24 12 -39 12 -31 0 -54 23
-45 45 3 10 19 15 43 15 51 0 71 13 54 34 -19 22 -133 22 -155 0 -9 -8 -16
-20 -16 -25 0 -15 -19 -10 -58 16 -28 19 -49 25 -92 25 -61 0 -80 -11 -80 -47
0 -33 -21 -29 -60 12 -41 42 -85 46 -143 12z m333 -52 c0 -21 -5 -25 -30 -25
-22 0 -30 5 -30 18 0 25 9 32 37 32 18 0 23 -5 23 -25z m-226 -7 c21 -30 20
-71 -3 -99 -16 -20 -22 -21 -52 -13 -28 8 -36 16 -43 47 -8 32 -7 40 14 62 29
31 64 32 84 3z m326 -68 c0 -54 -14 -65 -44 -34 -21 20 -20 43 1 66 29 33 43
22 43 -32z"/>
<path d="M3317 16502 c-14 -15 -17 -40 -17 -120 l0 -100 36 -12 c52 -17 120
-5 140 26 21 31 38 31 52 -1 21 -45 72 -26 72 27 0 39 22 36 59 -9 29 -36 35
-38 90 -39 32 -1 82 -4 112 -8 30 -3 60 -2 68 3 25 16 4 39 -43 46 -35 6 -46
12 -46 26 0 13 9 19 38 21 29 2 37 7 37 23 0 15 -8 21 -35 25 -29 4 -35 9 -35
30 0 22 5 26 42 31 51 6 60 14 43 34 -9 10 -31 15 -72 15 -50 0 -63 -4 -84
-25 -14 -14 -30 -25 -36 -25 -5 0 -23 11 -40 25 -50 42 -149 30 -168 -20 -11
-30 -35 -33 -50 -5 -25 47 -131 68 -163 32z m351 -65 c3 -26 1 -28 -25 -25
-31 3 -44 35 -21 49 23 15 43 5 46 -24z m-236 -8 c35 -47 -6 -131 -49 -103
-23 14 -27 35 -18 91 5 37 10 44 27 41 12 -2 30 -15 40 -29z m326 -67 c3 -34
0 -42 -14 -42 -34 0 -56 54 -32 78 24 24 43 9 46 -36z"/>
<path d="M4018 16497 c-42 -35 -45 -63 -8 -95 17 -15 45 -32 63 -38 42 -14 49
-44 11 -44 -15 0 -35 7 -45 16 -22 20 -49 12 -49 -14 0 -68 100 -79 182 -20
14 10 21 9 41 -10 45 -43 124 -38 161 11 19 26 19 28 3 62 -9 19 -21 35 -27
35 -16 0 -12 37 5 44 24 9 18 33 -14 55 -38 27 -62 26 -107 -4 -36 -24 -74
-33 -74 -17 0 14 -58 42 -87 42 -15 0 -40 -10 -55 -23z m82 -42 c14 -17 60
-21 60 -5 0 23 26 8 37 -21 9 -22 24 -36 62 -52 35 -14 51 -27 51 -39 0 -22
-38 -24 -66 -3 -10 8 -27 15 -37 15 -10 0 -32 13 -48 29 -16 16 -45 35 -64 41
-24 8 -35 18 -35 31 0 23 23 25 40 4z"/>
<path d="M2802 15642 c-10 -7 -10 -11 2 -21 11 -9 24 -10 48 -3 20 5 415 10
978 11 519 1 946 4 949 6 2 3 -430 5 -960 5 -530 0 -973 3 -984 5 -11 3 -26 1
-33 -3z"/>
<path d="M7507 15637 c-14 -10 -18 -29 -18 -100 -1 -119 10 -137 89 -137 66 0
93 15 112 60 17 42 40 39 40 -5 0 -23 6 -38 18 -44 25 -13 52 5 52 35 0 42 30
42 66 -1 l32 -38 141 -4 c138 -4 141 -4 189 23 l49 28 46 -27 c53 -31 83 -34
116 -10 19 13 28 14 42 5 28 -18 57 -14 71 8 16 26 26 25 47 -2 31 -37 41 -14
41 91 0 108 -10 135 -51 129 -18 -2 -27 -13 -38 -46 -11 -34 -17 -42 -34 -40
-14 2 -24 15 -31 43 -11 37 -14 40 -46 40 l-35 0 -3 -72 c-3 -88 -20 -96 -52
-25 -41 92 -45 97 -70 97 -19 0 -31 -11 -52 -50 -15 -27 -27 -60 -27 -72 -1
-12 -13 -35 -27 -52 -20 -24 -34 -31 -63 -31 -49 0 -80 22 -65 47 6 10 22 18
36 19 64 3 65 39 2 49 -35 5 -44 10 -42 23 2 12 17 18 48 22 37 4 45 9 45 25
0 18 -8 20 -71 23 -60 2 -73 0 -89 -18 -23 -25 -30 -25 -62 0 -20 15 -41 20
-89 20 -54 0 -65 -3 -78 -22 -9 -12 -16 -33 -16 -45 0 -35 -28 -28 -47 12 -10
21 -27 38 -46 45 -41 14 -110 13 -130 -3z m117 -59 c31 -45 9 -128 -33 -128
-24 0 -31 19 -31 79 0 69 33 94 64 49z m241 -3 c0 -22 -31 -33 -47 -17 -17 17
-1 44 24 40 15 -2 23 -10 23 -23z m95 -75 c0 -37 -4 -50 -15 -50 -29 0 -46 65
-23 88 26 26 38 13 38 -38z"/>
<path d="M8463 15276 c-22 -19 -25 -26 -15 -38 7 -9 22 -13 38 -10 25 4 26 3
20 -25 -5 -21 -2 -34 9 -43 8 -7 15 -21 15 -33 0 -17 -5 -19 -39 -13 -63 10
-67 -27 -6 -60 34 -18 34 -18 74 10 45 32 54 65 24 98 -13 15 -14 23 -4 44 9
20 17 25 34 20 12 -3 37 -6 55 -6 40 0 49 -19 32 -69 -15 -46 -4 -73 39 -95
37 -19 78 -8 105 27 18 24 19 31 7 63 -7 20 -10 50 -7 70 6 28 2 38 -18 59
-32 32 -66 32 -100 0 -33 -30 -34 -30 -63 -3 -20 19 -27 20 -41 10 -33 -23
-42 -24 -68 -3 -35 27 -56 26 -91 -3z m327 -146 c0 -11 -7 -20 -15 -20 -8 0
-15 9 -15 20 0 11 7 20 15 20 8 0 15 -9 15 -20z"/>
<path d="M11328 14998 c-20 -16 -33 -174 -18 -213 14 -38 43 -29 54 18 7 25
15 37 27 37 18 0 23 -4 57 -49 16 -21 29 -25 88 -28 85 -5 165 -4 175 3 21 13
-6 33 -49 36 -43 3 -47 5 -47 28 0 22 5 26 40 30 32 4 41 10 43 27 3 19 -2 22
-40 25 -35 2 -43 7 -43 23 0 17 8 21 45 23 53 4 68 15 50 37 -20 24 -134 21
-160 -5 -11 -11 -27 -20 -36 -20 -9 0 -27 9 -41 20 -30 23 -119 28 -145 8z
m101 -47 c21 -13 5 -41 -23 -41 -28 0 -40 14 -32 35 6 17 34 19 55 6z m109
-99 c3 -46 -8 -54 -40 -25 -21 19 -23 44 -6 61 24 24 43 9 46 -36z"/>
<path d="M12314 14997 c-10 -5 -23 -16 -27 -24 -11 -19 -31 -16 -52 7 -19 21
-65 28 -65 9 0 -5 11 -27 25 -47 29 -43 31 -63 9 -97 -24 -36 -42 -31 -64 20
-65 147 -58 137 -92 133 -28 -3 -33 -9 -48 -53 -9 -27 -24 -63 -33 -80 -9 -16
-17 -35 -17 -41 0 -18 -23 -23 -69 -17 -58 8 -71 30 -64 108 5 57 4 64 -15 74
-33 18 -45 -16 -40 -116 4 -108 10 -113 128 -113 74 0 90 3 105 20 13 14 31
20 60 20 29 0 47 -6 60 -20 27 -29 85 -27 115 5 13 14 29 25 35 25 6 0 22 -11
35 -25 28 -30 60 -33 60 -5 0 10 -11 36 -25 56 -14 20 -25 44 -25 52 0 8 11
30 25 48 14 18 25 39 25 47 0 20 -22 27 -46 14z"/>
<path d="M10657 13971 c-42 -5 -63 -12 -73 -26 -12 -15 -14 -103 -14 -505 0
-365 -3 -489 -12 -498 -9 -9 -377 -12 -1593 -12 -1216 0 -1584 -3 -1593 -12
-16 -16 -15 -90 2 -113 11 -15 28 -19 93 -20 44 -1 85 -5 92 -9 8 -5 11 -147
11 -509 0 -575 -4 -547 80 -547 60 0 80 18 80 70 0 46 7 51 67 56 25 1 50 7
55 12 6 6 11 33 11 61 1 64 -16 83 -80 91 l-48 5 -3 372 c-2 321 0 373 13 387
13 13 54 14 286 12 193 -2 273 -6 282 -15 9 -9 12 -106 13 -369 1 -354 0 -357
-23 -404 -25 -52 -28 -82 -13 -122 9 -25 13 -26 89 -26 58 0 82 4 91 15 10 12
13 114 12 460 -1 297 2 446 9 450 17 11 1071 7 1082 -4 7 -7 17 -6 30 1 15 7
270 9 881 3 716 -5 863 -9 872 -20 17 -22 15 -313 -2 -347 -13 -25 -13 -31 2
-53 14 -21 15 -46 10 -177 -8 -189 -8 -188 -4 -327 4 -131 11 -141 87 -141 82
0 76 -42 76 532 1 282 4 519 9 526 4 7 30 12 64 12 31 0 68 6 82 13 23 11 26
20 31 97 4 53 3 90 -3 98 -8 9 -110 12 -447 12 -240 0 -442 4 -449 9 -11 7
-13 96 -12 467 0 404 -1 462 -15 482 -17 23 -24 24 -128 13z"/>
<path d="M3775 13523 c-51 -8 -55 -17 -55 -130 0 -83 3 -105 15 -109 21 -9 45
14 45 43 0 42 30 41 66 -3 28 -33 40 -39 76 -41 24 -1 72 -3 108 -5 80 -5 102
0 98 21 -2 11 -18 17 -53 21 -42 4 -50 8 -50 25 0 16 8 21 37 23 20 2 41 9 48
16 16 20 -14 46 -51 46 -32 0 -51 26 -29 40 6 4 35 10 64 14 45 5 53 3 68 -17
10 -12 22 -38 28 -57 26 -85 53 -130 76 -130 26 0 54 34 54 65 0 29 37 85 56
85 14 0 15 -8 9 -55 -8 -66 0 -95 25 -95 29 0 34 18 31 103 -2 69 0 78 14 75
16 -3 25 -22 76 -155 6 -17 17 -23 37 -23 27 0 31 5 57 75 35 96 55 100 55 11
0 -56 3 -67 22 -80 40 -28 166 -14 156 17 -3 6 -24 14 -49 17 -36 4 -44 9 -44
25 0 15 9 21 38 26 20 3 40 9 43 12 12 12 -6 37 -26 37 -30 0 -60 18 -60 35 0
14 19 21 70 27 14 2 26 10 28 19 4 22 -49 32 -131 24 -110 -11 -113 -13 -132
-98 -9 -44 -36 -30 -60 33 l-21 54 -85 3 c-97 4 -103 1 -129 -71 -18 -48 -47
-60 -55 -22 -3 14 -7 37 -10 51 -7 31 -41 46 -72 32 -17 -7 -27 -6 -39 4 -10
9 -42 14 -81 15 -57 1 -66 -2 -80 -23 -19 -28 -26 -29 -61 -4 -30 22 -80 31
-127 24z m69 -49 c9 -3 16 -15 16 -25 0 -25 -57 -27 -67 -3 -9 24 20 40 51 28z
m111 -65 c9 -27 -3 -89 -16 -89 -12 0 -48 40 -49 53 0 14 34 56 47 57 6 0 15
-9 18 -21z"/>
<path d="M12749 12998 c-18 -7 -20 -16 -17 -100 3 -87 4 -93 28 -105 20 -10
221 -13 954 -13 748 1 931 -2 938 -12 4 -7 8 -94 8 -192 l0 -180 98 -98 c54
-54 104 -98 110 -98 7 0 30 17 51 38 21 20 50 45 65 55 46 32 36 68 -39 138
l-65 62 0 242 c0 186 -3 245 -13 253 -15 13 -2085 22 -2118 10z"/>
<path d="M5911 12036 c-14 -16 -5 -25 44 -41 24 -8 30 -16 30 -40 0 -25 -5
-31 -37 -40 -45 -12 -61 -26 -53 -47 8 -19 36 -28 93 -28 30 0 42 -4 42 -14 0
-8 -5 -18 -11 -22 -6 -3 -17 -22 -25 -40 -20 -47 -47 -46 -38 1 13 69 -54 49
-72 -22 -9 -33 38 -103 69 -103 26 0 57 29 81 78 9 17 23 32 31 32 19 0 19
-40 0 -66 -8 -10 -15 -31 -15 -45 0 -23 -9 -29 -70 -54 -39 -16 -75 -34 -82
-42 -17 -21 5 -57 43 -70 19 -6 65 -23 103 -37 39 -13 74 -23 78 -20 15 9 8
32 -17 62 -31 37 -31 50 0 92 19 26 24 41 19 66 -3 18 -1 35 5 38 16 10 13 99
-4 122 -17 22 -20 54 -4 54 6 0 9 12 7 28 -2 22 -9 28 -33 30 -38 5 -55 19
-55 46 0 30 18 46 52 46 32 0 49 27 27 41 -24 15 -195 11 -208 -5z"/>
<path d="M15263 12014 c-15 -20 -43 -50 -60 -67 -18 -17 -33 -36 -33 -44 0 -8
29 -45 65 -83 l65 -69 0 -83 c0 -46 4 -89 9 -97 6 -8 29 -15 58 -17 26 -1 64
-6 84 -9 60 -11 69 12 69 175 l-1 135 -82 86 c-77 81 -112 109 -136 109 -6 0
-23 -16 -38 -36z"/>
<path d="M13416 11338 c-12 -16 -16 -47 -16 -115 0 -108 4 -113 98 -113 65 0
94 20 107 73 11 43 35 34 35 -13 0 -45 2 -46 73 -53 56 -5 77 9 77 54 0 43 24
36 52 -13 24 -44 54 -60 69 -36 5 7 9 56 9 109 0 73 -4 100 -15 109 -17 14
-22 5 -27 -45 -5 -47 -32 -43 -63 9 -31 53 -43 59 -81 40 -22 -12 -33 -13 -50
-3 -32 17 -44 4 -44 -47 0 -52 -24 -62 -35 -14 -11 49 -57 80 -120 80 -44 0
-57 -4 -69 -22z m124 -57 c5 -11 10 -38 10 -60 0 -44 -24 -67 -59 -56 -22 7
-34 75 -20 111 11 30 54 33 69 5z"/>
<path d="M9873 11240 c-36 -16 -43 -24 -43 -48 0 -39 27 -69 70 -80 25 -6 36
-14 38 -30 5 -31 -22 -38 -53 -14 -15 12 -33 18 -41 15 -22 -8 -61 33 -80 86
-21 55 -41 81 -64 81 -25 0 -35 -16 -74 -118 -44 -115 -37 -148 21 -102 32 25
98 27 111 3 7 -11 25 -17 58 -19 27 -2 67 -6 89 -9 58 -9 105 22 105 69 0 18
-7 39 -15 46 -24 20 -29 50 -10 64 12 8 15 19 11 34 -6 19 -16 24 -66 37 -8 3
-34 -4 -57 -15z m71 -46 c20 -8 21 -34 2 -34 -25 0 -46 12 -46 26 0 15 18 18
44 8z"/>
<path d="M10051 11242 c-11 -20 -5 -32 24 -48 16 -9 21 -24 25 -87 5 -79 17
-104 44 -94 13 5 16 22 16 81 0 57 4 79 18 97 35 42 50 20 53 -81 3 -67 8 -93
19 -100 25 -16 136 -12 150 5 18 22 3 35 -39 35 -41 0 -67 20 -57 45 3 9 18
15 39 15 40 0 70 26 46 41 -8 5 -29 9 -46 9 -26 0 -33 4 -33 20 0 15 7 20 28
20 42 0 72 11 72 26 0 24 -22 27 -187 30 -147 3 -164 2 -172 -14z"/>
<path d="M13321 10980 c-27 -23 -44 -25 -59 -7 -8 9 -41 13 -114 12 -97 0
-103 -1 -106 -21 -2 -16 4 -24 27 -32 34 -12 39 -31 16 -66 -8 -12 -16 -40
-18 -62 -2 -36 0 -39 23 -39 22 0 26 6 35 50 14 71 44 118 70 109 11 -3 32 -6
47 -6 38 1 52 -20 42 -65 -10 -50 -7 -65 18 -85 31 -27 93 -23 123 7 29 28 30
36 9 77 -13 26 -14 35 -3 54 13 25 33 31 44 14 3 -5 31 -10 61 -10 60 0 71 10
60 55 -6 22 -11 25 -56 25 -37 0 -54 -5 -69 -21 -22 -24 -55 -19 -71 12 -14
24 -48 24 -79 -1z m59 -160 c0 -13 -7 -20 -20 -20 -13 0 -20 7 -20 20 0 13 7
20 20 20 13 0 20 -7 20 -20z"/>
<path d="M7594 10496 c-18 -14 -19 -34 -22 -644 -2 -578 -1 -630 14 -643 14
-12 177 -15 973 -19 l956 -5 23 -48 c27 -57 68 -96 101 -97 20 0 21 2 11 15
-7 8 -18 15 -25 15 -6 0 -26 18 -43 39 -30 37 -32 45 -32 119 0 69 3 81 23 99
12 12 33 23 47 26 23 4 23 4 -4 6 -17 0 -40 10 -52 22 -19 18 -22 28 -17 74 4
33 1 55 -6 59 -8 5 -11 -14 -11 -63 0 -104 17 -99 -360 -95 -173 2 -331 3
-350 3 -394 -7 -1058 -6 -1072 2 -18 9 -19 22 -14 172 2 89 4 171 4 182 -4
589 -10 760 -25 777 -20 22 -91 24 -119 4z"/>
<path d="M15415 10419 c-16 -5 -43 -6 -58 -3 -47 10 -57 -8 -57 -103 l0 -84
-65 -69 c-36 -38 -65 -78 -65 -89 0 -11 12 -28 26 -38 14 -9 37 -34 50 -55 20
-31 30 -38 57 -38 40 0 35 -3 135 102 l82 87 0 134 c0 117 -2 136 -18 150 -20
19 -42 20 -87 6z"/>
<path d="M14762 9686 c-51 -51 -92 -100 -93 -107 -5 -147 0 -300 11 -314 10
-12 41 -15 181 -15 139 0 170 -3 183 -16 14 -14 16 -83 16 -612 0 -352 4 -603
10 -612 5 -9 26 -15 52 -16 24 -1 60 -5 81 -9 29 -6 42 -4 57 10 20 18 20 34
20 731 0 392 -3 719 -6 728 -5 14 -31 16 -185 16 -217 0 -221 3 -135 89 43 43
56 63 56 86 0 36 -6 45 -45 70 -16 10 -38 29 -48 42 -32 41 -57 30 -155 -71z"/>
<path d="M10325 9379 c-27 -4 -117 -7 -200 -7 -141 1 -150 0 -150 -18 0 -18
16 -19 495 -21 272 -1 506 0 520 3 23 5 23 7 8 18 -11 8 -66 13 -165 15 -81 1
-151 5 -155 7 -13 8 -301 10 -353 3z"/>
<path d="M3825 9180 c-15 -16 -18 -37 -18 -109 0 -99 4 -111 38 -111 23 0 35
17 35 51 0 32 37 23 62 -16 24 -36 54 -45 75 -24 9 9 21 8 47 -5 25 -12 55
-16 99 -14 54 3 62 5 62 23 0 16 -8 21 -45 25 -37 4 -45 9 -45 25 0 16 8 21
43 23 64 5 57 37 -12 52 -25 4 -31 11 -31 30 0 22 5 25 39 28 68 6 84 -3 100
-56 23 -78 53 -139 71 -146 26 -10 53 11 61 46 21 97 72 134 66 48 -4 -67 4
-92 31 -88 21 3 22 9 25 91 4 126 28 118 76 -25 17 -51 26 -64 44 -66 33 -5
61 24 68 70 7 43 38 88 60 88 11 0 14 -15 12 -69 -2 -91 7 -101 86 -101 67 0
92 10 83 33 -4 11 -22 17 -54 19 -40 3 -48 6 -48 23 0 17 8 20 48 23 38 3 47
7 47 21 0 22 -19 31 -61 31 -32 0 -49 24 -30 43 6 6 29 12 52 13 47 2 54 7 45
30 -6 15 -18 16 -113 10 -120 -7 -136 -15 -155 -78 -16 -53 -40 -50 -57 7 -7
24 -20 50 -28 56 -21 18 -157 21 -179 4 -10 -7 -23 -30 -28 -50 -13 -45 -42
-68 -56 -45 -5 8 -12 32 -15 53 -9 49 -29 57 -146 57 -115 0 -131 -8 -128 -63
5 -88 -1 -137 -16 -144 -36 -13 -61 71 -29 98 19 16 11 55 -18 87 -30 31 -135
32 -163 2z m109 -26 c9 -3 16 -17 16 -30 0 -20 -5 -24 -30 -24 -25 0 -30 4
-30 23 0 35 12 43 44 31z"/>
<path d="M6097 8803 c-4 -3 -7 -47 -7 -98 0 -57 -4 -95 -12 -103 -9 -9 -165
-12 -639 -12 -583 0 -627 -1 -633 -17 -4 -10 -7 -202 -7 -428 0 -226 -4 -417
-9 -425 -5 -8 -33 -15 -76 -17 -37 -2 -73 -8 -81 -14 -19 -17 -16 -93 5 -118
16 -20 27 -21 276 -23 l258 -3 -7 70 c-4 38 -12 73 -17 76 -18 11 -116 21
-138 14 -44 -14 -50 7 -50 162 l0 145 49 -7 c36 -5 57 -2 80 10 53 27 59 71
19 127 -10 14 -10 22 0 38 20 33 14 50 -25 67 -31 12 -44 13 -70 4 -18 -7 -37
-9 -43 -6 -5 3 -10 44 -10 90 0 66 3 84 16 89 9 3 258 6 554 6 523 0 540 -1
550 -19 6 -13 10 -139 10 -343 0 -366 0 -368 -69 -368 -20 0 -42 -5 -49 -12
-16 -16 -16 -124 1 -135 17 -11 249 -3 265 9 9 8 12 55 12 174 0 157 1 164 21
175 13 7 41 9 70 5 57 -8 69 6 69 79 0 75 -10 85 -85 85 -35 0 -67 5 -70 11
-4 5 -6 163 -6 349 l2 338 -23 16 c-22 16 -118 23 -131 9z m-1027 -618 c0 -8
-9 -15 -20 -15 -11 0 -20 7 -20 15 0 8 9 15 20 15 11 0 20 -7 20 -15z m-32
-71 c15 -4 22 -14 22 -30 0 -30 -34 -32 -67 -5 -41 35 -19 52 45 35z"/>
<path d="M5433 8249 c-17 -5 -43 -24 -58 -41 -24 -28 -27 -38 -23 -87 4 -47
10 -59 41 -88 50 -45 102 -46 150 -3 41 35 53 37 60 10 12 -45 67 -31 67 17 0
43 30 41 70 -5 31 -36 41 -42 75 -41 22 0 72 -3 110 -6 74 -6 102 3 92 29 -4
11 -19 16 -45 16 -60 0 -88 44 -34 56 54 12 62 16 62 29 0 14 -15 20 -65 27
-11 2 -21 11 -23 21 -3 14 4 17 41 17 29 0 49 6 58 16 21 25 -14 44 -82 44
-49 0 -60 -4 -77 -25 -22 -28 -47 -33 -55 -11 -9 23 -79 39 -130 32 -37 -6
-47 -12 -57 -36 -16 -37 -24 -37 -58 0 -30 34 -71 44 -119 29z m75 -61 c15
-15 16 -82 2 -109 -23 -41 -100 -3 -100 50 0 50 67 90 98 59z m240 -10 c3 -14
-3 -18 -27 -18 -25 0 -31 4 -31 21 0 16 5 20 27 17 17 -2 29 -10 31 -20z m92
-73 c0 -35 -4 -45 -16 -45 -19 0 -43 28 -44 51 0 20 20 39 42 39 15 0 18 -8
18 -45z"/>
<path d="M7369 8064 c-9 -11 -14 -42 -14 -83 l0 -66 121 4 c103 3 123 1 137
-14 16 -15 17 -150 17 -1919 0 -1466 3 -1905 12 -1914 7 -7 30 -12 51 -12 22
0 58 -5 80 -12 35 -11 41 -10 53 7 8 10 14 31 14 46 0 55 6 59 89 59 47 0 84
5 93 13 12 9 18 38 23 104 7 88 6 92 -16 103 -16 9 -52 11 -117 7 -149 -9
-133 -108 -131 836 1 447 6 810 11 820 7 14 23 17 98 17 118 0 120 1 120 64 0
70 -20 98 -68 95 -76 -5 -131 1 -146 17 -13 12 -15 43 -15 179 1 117 5 170 15
187 26 46 27 52 10 82 -24 41 -34 281 -13 309 12 17 48 18 597 17 448 0 586
-3 592 -13 4 -7 8 -68 8 -137 0 -92 -4 -136 -17 -168 -15 -41 -15 -46 0 -72
14 -23 17 -58 17 -202 0 -122 -4 -178 -12 -186 -7 -7 -37 -12 -68 -12 -33 0
-64 -6 -77 -15 -26 -18 -38 -80 -24 -118 l11 -27 133 0 c132 0 197 11 197 33
0 7 0 449 1 982 l0 970 -22 18 c-18 15 -44 17 -190 17 -156 0 -169 -1 -179
-19 -14 -27 -13 -114 2 -129 8 -8 45 -12 101 -12 140 0 127 37 127 -373 0
-261 -3 -356 -12 -365 -9 -9 -154 -12 -589 -12 -521 0 -578 2 -590 16 -18 22
-23 710 -5 722 6 4 38 9 71 12 69 6 81 20 87 105 l3 50 -286 3 c-257 2 -288 1
-300 -14z"/>
<path d="M9284 7525 c-11 -44 8 -119 34 -130 28 -12 28 -15 -8 -73 -19 -32
-30 -63 -30 -86 0 -28 7 -45 30 -68 36 -35 37 -44 9 -51 -43 -11 -12 -32 62
-42 83 -12 99 -19 99 -43 0 -38 -17 -47 -90 -48 -53 0 -75 -4 -88 -18 -16 -16
-16 -18 6 -36 28 -23 28 -35 -3 -72 -32 -38 -32 -69 1 -107 45 -54 113 -30
133 45 4 16 15 30 24 32 23 5 23 -45 0 -70 -12 -13 -13 -22 -6 -29 19 -19 56
-5 76 29 17 29 18 39 8 73 -7 21 -23 46 -36 55 -33 21 -31 32 7 64 28 24 32
33 31 71 -3 59 -30 93 -79 99 -27 4 -40 10 -42 24 -3 16 1 17 35 12 26 -5 44
-2 57 7 27 20 14 45 -26 49 -47 4 -52 40 -9 63 46 23 60 52 52 110 -6 51 -7
52 -78 71 -8 2 -13 19 -13 39 0 28 -4 35 -20 35 -15 0 -21 -9 -26 -40 -10 -62
-52 -50 -61 19 -4 31 -10 41 -24 41 -12 0 -21 -10 -25 -25z m194 -162 c2 -16
-4 -26 -22 -34 -32 -15 -56 2 -56 38 0 22 4 24 38 21 30 -2 38 -7 40 -25z
m-88 -109 c0 -31 -3 -35 -22 -32 -26 3 -35 32 -18 53 22 27 40 17 40 -21z m28
-355 c-5 -33 -34 -47 -54 -27 -24 24 -11 48 26 48 26 0 31 -3 28 -21z m-28
-58 c0 -21 -13 -41 -26 -41 -15 0 -17 10 -8 34 7 17 34 22 34 7z"/>
<path d="M12344 7020 c-12 -4 -24 -15 -27 -24 -8 -20 -37 -21 -37 -1 0 20 -36
19 -44 -1 -3 -9 -6 -29 -6 -46 0 -42 -26 -34 -65 22 -34 48 -70 63 -79 33 -12
-38 -9 -202 3 -217 19 -23 41 -8 47 35 9 52 37 53 62 2 14 -32 22 -38 47 -38
l30 0 3 88 c2 68 6 87 17 87 12 0 15 -16 15 -78 0 -47 5 -84 13 -94 7 -10 34
-17 72 -20 72 -6 85 -2 85 23 0 21 -35 39 -76 39 -21 0 -25 4 -22 23 2 18 11
23 48 27 31 3 45 10 45 20 0 10 -14 17 -45 20 -37 4 -46 9 -48 27 -3 20 2 22
45 25 37 2 49 7 51 22 2 10 -2 22 -10 27 -17 11 -96 10 -124 -1z"/>
<path d="M8559 6597 c-13 -7 -30 -25 -37 -40 -12 -25 -42 -38 -42 -19 0 13
-80 62 -100 62 -11 0 -39 -13 -63 -30 -41 -28 -45 -34 -51 -84 -15 -113 66
-175 169 -131 20 8 38 21 41 30 9 23 29 18 42 -10 20 -43 62 -25 62 27 0 42
29 36 73 -17 42 -50 52 -54 66 -26 8 14 6 25 -9 44 -24 30 -26 60 -5 77 8 7
15 25 15 41 0 51 -108 102 -161 76z m89 -84 c3 -20 -1 -23 -27 -23 -27 0 -31
4 -31 26 0 22 4 25 28 22 19 -2 28 -9 30 -25z m-219 -14 c29 -53 -14 -110 -73
-95 -34 8 -46 65 -22 102 23 34 74 31 95 -7z"/>
<path d="M4449 5421 c-21 -17 -24 -30 -27 -100 -5 -96 9 -138 46 -148 30 -7
110 12 133 33 20 18 45 18 53 -1 3 -8 16 -15 30 -15 24 0 36 16 36 51 0 31 32
22 71 -21 32 -35 40 -39 68 -34 18 4 50 1 72 -6 54 -18 185 -1 227 29 38 27
48 26 91 -3 55 -37 77 -40 100 -17 25 25 34 26 65 6 27 -18 53 -11 61 16 8 25
29 24 47 -3 27 -40 38 -13 38 91 0 108 -10 135 -50 129 -19 -2 -29 -14 -41
-48 -22 -60 -43 -63 -61 -9 -17 50 -40 69 -65 53 -14 -9 -19 -28 -21 -83 -4
-94 -23 -93 -64 6 -29 69 -51 90 -78 73 -13 -8 -50 -85 -69 -143 -16 -48 -36
-58 -97 -49 -40 6 -49 11 -49 27 0 16 8 21 40 25 53 7 54 32 2 41 -20 3 -40 9
-44 13 -15 15 15 41 50 44 41 4 67 26 49 44 -6 6 -41 10 -79 9 -59 -1 -71 -5
-90 -26 -27 -31 -27 -31 -67 0 -26 20 -44 25 -90 25 -53 0 -58 -2 -74 -30 -19
-34 -42 -38 -59 -11 -11 17 -90 51 -119 51 -6 0 -22 -9 -35 -19z m331 -56 c17
-20 5 -45 -20 -45 -23 0 -35 22 -26 45 7 19 30 19 46 0z m-226 -14 c28 -30 18
-92 -17 -111 -26 -14 -29 -14 -43 4 -27 38 -11 126 24 126 10 0 27 -9 36 -19z
m326 -72 c0 -36 -2 -40 -22 -37 -40 5 -37 78 2 78 17 0 20 -6 20 -41z"/>
<path d="M15180 5400 c-14 -4 -39 -8 -57 -9 -65 -2 -63 17 -63 -506 l0 -474
-22 -16 c-21 -14 -306 -15 -2927 -15 -2338 0 -2906 -2 -2913 -12 -11 -18 -10
-152 2 -182 l10 -26 3019 0 c2732 0 3021 1 3035 16 14 14 16 82 16 600 l0 585
-25 24 c-25 26 -34 28 -75 15z"/>
<path d="M8797 4134 c-4 -4 -64 -7 -134 -6 -74 1 -131 -2 -138 -8 -7 -6 -28
-9 -46 -8 -33 3 -34 2 -37 -39 -4 -54 -29 -58 -56 -8 -32 59 -49 69 -90 54
-28 -10 -39 -10 -48 -1 -14 14 -136 16 -158 3 -20 -13 -21 -201 -1 -225 16
-19 145 -23 157 -4 10 16 -25 38 -63 38 -25 0 -33 4 -33 18 0 26 20 42 52 42
32 0 49 27 27 41 -8 5 -29 9 -46 9 -26 0 -33 4 -33 20 0 15 7 20 28 20 15 0
44 3 65 7 l39 6 -3 -93 c-3 -88 -2 -93 19 -101 27 -10 52 12 52 47 0 29 35 34
44 6 4 -10 20 -31 36 -47 43 -41 55 -24 55 80 0 99 9 114 54 95 36 -15 44 -36
36 -92 -9 -58 8 -100 38 -96 20 3 22 9 25 83 3 84 18 115 53 115 21 0 28 -29
32 -130 2 -54 5 -65 21 -68 22 -5 36 13 36 46 0 37 38 27 80 -20 33 -38 39
-41 54 -29 18 15 14 45 -12 74 -14 16 -14 20 1 46 9 16 17 43 17 61 0 26 -6
33 -33 45 -48 20 -82 27 -90 19z m61 -76 c3 -15 -4 -18 -32 -18 -34 0 -47 15
-29 34 13 13 58 1 61 -16z"/>
<path d="M8461 3698 c-97 -99 -111 -118 -117 -155 -6 -43 6 -73 30 -73 6 0 38
30 72 66 90 100 94 95 93 -117 -1 -180 1 -189 47 -203 11 -3 29 0 40 8 17 13
19 28 20 192 1 133 4 179 14 182 6 2 43 -26 80 -63 83 -82 100 -82 100 0 l0
56 -112 109 c-74 71 -121 110 -135 110 -15 0 -58 -37 -132 -112z"/>
<path d="M4742 2654 c-24 -17 -29 -63 -12 -108 l10 -26 406 2 407 3 17 52 c31
94 36 93 -422 93 -331 0 -387 -2 -406 -16z"/>
<path d="M4690 2390 c-11 -7 -16 -33 -18 -104 -5 -127 1 -136 83 -136 53 0 68
4 93 25 37 31 46 31 66 -1 22 -33 40 -26 46 17 7 49 35 50 75 3 l32 -38 117
-3 c99 -3 117 -2 122 12 9 22 0 28 -49 34 -29 4 -43 11 -45 24 -3 12 3 17 20
17 38 0 68 12 68 26 0 17 -32 34 -65 34 -22 0 -26 4 -23 23 2 18 10 23 45 25
42 3 70 23 58 42 -3 5 -40 10 -80 10 -68 0 -76 -2 -91 -25 -9 -14 -22 -25 -28
-25 -7 0 -23 11 -36 25 -20 21 -32 25 -85 25 -63 0 -85 -11 -85 -42 0 -26 -21
-22 -68 12 -33 23 -52 30 -89 30 -27 0 -55 -5 -63 -10z m120 -71 c31 -43 20
-98 -23 -112 -40 -13 -57 5 -57 60 0 84 37 109 80 52z m218 4 c-2 -20 -9 -28
-23 -28 -14 0 -21 8 -23 28 -3 23 0 27 23 27 23 0 26 -4 23 -27z m106 -49 c19
-49 -7 -91 -39 -64 -15 13 -21 61 -8 73 12 13 41 7 47 -9z"/>
<path d="M5381 2374 c-18 -15 -31 -35 -31 -49 0 -24 47 -66 88 -79 32 -10 30
-46 -3 -46 -14 0 -28 7 -31 15 -4 8 -17 15 -30 15 -19 0 -24 -5 -24 -24 0 -35
35 -56 93 -56 38 0 53 5 71 25 13 14 29 25 36 25 7 0 23 -11 36 -25 19 -20 33
-25 72 -25 62 0 102 28 102 71 0 31 -30 69 -55 69 -24 0 -17 28 8 32 31 4 35
42 5 62 -37 26 -90 21 -122 -13 -40 -42 -32 -69 31 -106 31 -18 52 -37 53 -47
0 -22 -25 -23 -60 -3 -14 8 -37 14 -51 15 -17 0 -33 9 -42 24 -9 13 -33 32
-54 42 -21 11 -39 27 -41 37 -4 21 16 22 39 1 22 -20 49 -12 49 15 0 51 -89
67 -139 25z"/>
</g>
</svg>
