<?xml version="1.0" standalone="no"?>
<!DOCTYPE svg PUBLIC "-//W3C//DTD SVG 20010904//EN"
 "http://www.w3.org/TR/2001/REC-SVG-20010904/DTD/svg10.dtd">
<svg version="1.0" xmlns="http://www.w3.org/2000/svg"
 width="1792.000000pt" height="1920.000000pt" viewBox="0 0 1792.000000 1920.000000"
 preserveAspectRatio="xMidYMid meet">
<metadata>
Created by potrace 1.16, written by Peter Selinger 2001-2019
</metadata>
<g transform="translate(0.000000,1920.000000) scale(0.100000,-0.100000)"
fill="#000000" stroke="none">
<path d="M8655 17710 c-4 -6 -6 -201 -6 -433 1 -377 0 -425 -15 -445 l-16 -24
-783 3 c-634 2 -786 0 -799 -10 -14 -12 -16 -137 -16 -1256 0 -1124 -2 -1243
-16 -1249 -9 -3 -278 -6 -599 -6 -480 0 -585 -2 -594 -14 -8 -9 -10 -151 -9
-507 l3 -494 25 -12 c14 -6 48 -13 75 -15 l50 -3 3 85 c3 102 11 111 86 103
60 -6 82 10 72 52 -11 43 -41 65 -91 65 -34 0 -47 5 -55 19 -6 12 -10 118 -10
276 0 158 4 264 10 276 10 18 27 19 543 19 401 0 536 -3 545 -12 9 -9 12 -86
12 -283 0 -197 -3 -274 -12 -283 -8 -8 -52 -12 -130 -12 -105 0 -120 -2 -138
-20 -21 -21 -26 -56 -10 -80 8 -13 39 -15 190 -13 99 0 187 4 195 7 13 5 15
204 15 1599 0 1540 1 1594 19 1611 17 15 82 16 801 16 676 -1 785 1 798 14 12
12 14 78 13 444 -2 390 -1 430 14 436 25 9 1688 7 1703 -3 11 -7 13 -79 11
-387 -4 -473 -4 -456 10 -482 l12 -22 709 0 c634 0 710 -2 724 -16 15 -14 16
-107 13 -942 -1 -510 -6 -938 -11 -951 -9 -23 -8 -24 30 -15 21 4 58 7 80 6
25 -1 46 3 53 11 8 10 12 266 14 888 2 481 5 879 6 884 5 30 -12 262 -20 270
-7 6 -263 10 -730 10 -629 0 -721 2 -729 15 -6 9 -10 182 -9 444 0 347 -2 430
-13 437 -20 13 -2015 11 -2023 -1z"/>
<path d="M12017 14023 c-4 -3 -7 -115 -7 -247 l0 -241 393 -392 392 -393 833
0 c555 0 840 -3 853 -10 18 -10 19 -23 19 -181 l0 -171 67 -69 c36 -38 74 -69
83 -69 9 0 25 9 35 20 10 11 27 20 37 20 45 0 34 60 -22 125 l-40 46 0 200 c0
119 -4 208 -10 220 -10 18 -23 19 -168 19 -86 0 -164 5 -172 10 -13 8 -15 58
-13 362 2 264 -1 359 -10 376 -12 23 -12 23 -245 25 -229 2 -233 2 -228 -18 3
-11 6 -38 6 -61 0 -73 8 -77 169 -78 114 -1 144 -4 151 -16 6 -9 9 -132 8
-311 -2 -231 -6 -300 -17 -312 -12 -15 -73 -16 -640 -16 -346 0 -633 4 -641 9
-35 22 -620 617 -620 631 0 14 45 16 447 18 271 1 452 6 459 12 18 15 24 63
13 103 l-10 36 -478 0 c-427 0 -480 2 -485 16 -3 9 -6 84 -6 168 0 105 -4 156
-12 164 -13 13 -130 17 -141 5z"/>
<path d="M6304 13946 c-3 -8 -1 -23 5 -35 6 -11 11 -40 11 -66 0 -32 5 -47 16
-52 23 -9 38 13 36 52 -4 49 29 49 47 0 13 -38 54 -75 81 -75 10 0 29 9 43 21
21 15 34 19 62 13 23 -4 35 -2 35 5 0 16 31 13 76 -8 21 -10 64 -21 95 -24
l57 -5 -3 42 c-2 24 -6 53 -10 66 -5 17 -3 27 10 36 11 8 15 20 11 30 -5 13
-15 16 -51 11 -24 -4 -54 -12 -65 -19 -16 -10 -25 -10 -49 5 -39 23 -77 22
-98 -3 -10 -11 -24 -20 -33 -20 -9 0 -23 9 -33 20 -21 24 -59 26 -98 3 -26
-16 -29 -16 -47 0 -23 21 -90 23 -98 3z m230 -58 c13 -21 -2 -51 -27 -56 -20
-4 -40 33 -32 59 8 24 43 22 59 -3z m226 -28 c0 -11 -7 -20 -15 -20 -8 0 -15
9 -15 20 0 11 7 20 15 20 8 0 15 -9 15 -20z"/>
<path d="M13332 13227 c-41 -20 -45 -21 -57 -4 -8 12 -26 17 -58 17 -54 0 -65
-12 -43 -45 9 -13 16 -42 16 -63 0 -41 23 -73 40 -56 5 5 10 31 12 59 2 38 7
51 21 53 12 3 17 -3 17 -20 0 -13 11 -40 25 -61 23 -33 30 -37 70 -37 34 0 48
5 57 20 16 25 26 25 51 3 18 -17 19 -17 28 0 12 21 37 22 58 3 22 -20 151 -40
164 -27 16 16 12 73 -6 86 -23 16 -21 32 3 38 12 3 20 14 20 27 0 20 -3 22
-47 16 -59 -8 -94 -8 -160 0 -45 5 -53 3 -63 -15 -13 -26 -33 -27 -51 -2 -22
30 -50 33 -97 8z m73 -72 c0 -23 -5 -31 -21 -33 -27 -4 -47 21 -39 48 5 16 14
20 33 18 23 -2 27 -8 27 -33z m233 -19 c3 -13 -1 -17 -14 -14 -11 2 -20 11
-22 22 -3 13 1 17 14 14 11 -2 20 -11 22 -22z"/>
<path d="M4696 13054 c-9 -24 -10 -22 60 -90 95 -91 92 -94 -108 -89 -187 4
-208 -2 -208 -58 0 -55 7 -57 202 -57 211 0 212 0 113 -95 -70 -68 -79 -91
-40 -101 63 -16 95 3 213 121 61 62 112 121 112 130 0 29 -197 228 -239 242
-53 17 -98 16 -105 -3z"/>
<path d="M5127 12905 c-23 -23 -24 -147 -1 -169 17 -18 51 -21 74 -6 12 8 12
11 -2 27 -12 14 -15 30 -11 68 6 51 15 65 44 65 21 0 32 -61 18 -97 -13 -34 2
-49 29 -32 17 11 27 10 62 -6 51 -23 60 -14 60 63 0 45 3 53 18 50 11 -2 18
-14 20 -33 6 -76 13 -95 32 -95 21 0 34 31 32 73 -3 33 14 67 32 67 18 0 26
-22 26 -68 0 -20 5 -44 10 -52 9 -13 12 -13 21 3 14 23 37 22 58 -5 25 -30 41
-15 41 38 0 75 49 70 70 -7 6 -22 15 -39 21 -39 5 0 18 20 29 44 10 24 23 47
29 50 16 11 13 46 -5 53 -8 3 -20 1 -27 -6 -14 -14 -40 -14 -55 1 -11 11 -84
20 -142 17 -14 -1 -41 0 -60 1 -115 6 -176 -4 -183 -31 -7 -24 -33 -25 -46 0
-7 13 -26 20 -63 24 -29 3 -67 9 -84 12 -22 5 -35 2 -47 -10z"/>
<path d="M8745 12550 l-420 -5 -3 -719 c-1 -523 1 -723 9 -732 9 -12 95 -14
470 -14 443 0 459 1 469 19 16 31 14 1440 -2 1446 -30 9 -126 10 -523 5z m403
-122 c9 -9 12 -159 12 -615 0 -591 0 -602 -20 -613 -25 -14 -656 -13 -682 1
-17 9 -18 43 -18 618 0 334 3 611 7 614 3 4 160 7 348 7 252 0 344 -3 353 -12z"/>
<path d="M5810 12431 c-5 -11 -10 -37 -10 -58 0 -22 -5 -44 -12 -51 -9 -9
-157 -12 -606 -12 -384 0 -600 -4 -612 -10 -28 -15 -980 -16 -1008 -1 -33 18
-926 15 -941 -3 -16 -19 -16 -10823 0 -10842 10 -12 584 -14 3575 -14 3225 0
3564 1 3578 16 14 14 16 92 16 712 0 623 -2 700 -16 720 -14 21 -15 73 -10
502 3 280 10 489 16 505 6 17 10 271 10 694 0 505 3 670 12 679 9 9 448 12
1914 12 1724 0 1904 1 1918 16 15 14 16 79 11 642 -10 1307 1 3091 18 3109 5
4 208 10 453 13 l443 5 60 59 c33 32 63 71 66 85 7 28 7 28 -69 77 l-39 25
-44 -43 -44 -43 -1140 -2 -1140 -3 -10 23 c-12 26 -8 25 -221 27 -366 4 -427
0 -462 -27 l-29 -23 -1014 1 c-580 0 -1024 4 -1038 9 l-24 9 0 438 c0 389 -2
439 -16 449 -10 7 -39 10 -78 7 -34 -3 -79 -1 -99 5 l-38 10 0 -42 c0 -53 15
-72 64 -79 22 -4 44 -11 50 -17 17 -17 15 -759 -2 -777 -21 -20 -878 -19 -885
1 -9 22 -8 759 1 772 4 6 23 15 42 18 68 14 70 16 70 51 0 65 -1 66 -114 59
-72 -5 -104 -11 -113 -21 -9 -12 -12 -166 -13 -617 -1 -672 -4 -636 71 -656
23 -6 44 -8 48 -5 3 4 4 60 2 126 -2 84 0 124 9 134 11 13 320 15 2536 15
2484 0 2523 0 2534 -19 7 -13 10 -270 10 -765 0 -478 4 -747 10 -751 5 -3 29
-9 52 -13 l43 -8 3 -486 3 -487 -43 -11 c-24 -6 -49 -13 -55 -15 -10 -3 -13
-122 -13 -549 0 -314 -4 -547 -9 -550 -10 -6 -3731 -9 -3737 -3 -2 2 -5 295
-5 651 -1 587 1 649 15 665 16 17 15 19 -6 25 -35 9 -77 7 -99 -4 -18 -10 -19
-24 -19 -290 0 -243 -2 -281 -16 -295 -15 -14 -63 -15 -478 -11 -253 3 -477 5
-496 6 -19 0 -76 -2 -126 -6 -72 -5 -92 -3 -102 9 -9 11 -12 208 -10 843 l3
829 82 3 c105 4 149 -14 138 -56 -5 -15 -7 -36 -6 -47 0 -11 2 -357 3 -770 2
-591 6 -750 15 -750 10 0 14 171 17 805 5 763 6 805 23 811 10 4 223 8 474 8
341 1 458 -2 467 -11 8 -8 12 -67 12 -198 0 -168 2 -189 18 -203 22 -20 52
-22 76 -4 15 11 17 34 14 259 -2 154 -7 251 -13 257 -7 7 -208 11 -599 13
-324 1 -618 4 -655 7 l-66 6 0 70 c0 39 -4 76 -8 83 -5 6 -26 12 -47 12 -76 0
-70 113 -70 -1379 0 -1032 -2 -1336 -11 -1342 -7 -4 -36 -7 -65 -6 -70 1 -84
-12 -84 -79 0 -59 12 -74 39 -50 14 13 42 17 115 19 73 2 100 7 113 19 14 15
16 54 14 358 -2 251 1 345 10 356 10 12 101 14 596 14 375 0 591 -4 603 -10
19 -10 19 -42 20 -1084 0 -591 3 -1082 6 -1090 4 -10 18 -16 38 -16 17 0 37
-4 44 -8 10 -7 12 -112 10 -492 l-3 -485 -35 -5 c-20 -4 -41 -10 -48 -14 -9
-5 -12 -152 -12 -631 0 -607 -1 -625 -19 -635 -21 -11 -4496 -15 -4525 -4 -14
6 -16 112 -16 1100 l0 1094 -32 20 c-18 11 -43 20 -54 20 -27 0 -37 -42 -28
-122 5 -45 3 -63 -10 -83 l-16 -25 -228 0 c-164 0 -231 -3 -240 -12 -7 -7 -12
-27 -12 -45 0 -44 24 -53 139 -53 67 0 92 -4 101 -15 15 -19 29 -19 49 -1 19
16 180 30 201 16 13 -8 15 -125 18 -935 2 -635 -1 -932 -8 -945 -9 -17 -21
-20 -90 -20 -43 0 -91 5 -105 12 l-25 11 0 903 c0 546 -4 905 -9 909 -5 3 -12
1 -15 -4 -3 -5 -6 -412 -6 -904 l-1 -896 -22 -16 c-19 -13 -118 -15 -809 -15
-684 0 -793 2 -826 15 -34 14 -42 14 -75 0 -44 -18 -168 -20 -185 -3 -9 9 -12
233 -12 945 0 878 1 933 18 941 10 6 51 6 102 0 47 -5 99 -8 115 -8 17 1 136
4 265 8 l234 7 15 27 c12 21 13 31 3 52 l-12 26 -354 0 c-305 0 -357 2 -370
15 -13 14 -15 165 -15 1347 0 967 3 1336 11 1345 9 11 100 14 491 13 391 -2
481 1 488 12 14 21 10 74 -5 87 -10 8 -145 12 -482 12 -276 1 -476 5 -486 10
-17 9 -18 36 -16 437 l3 427 885 5 c497 3 890 1 898 -4 9 -6 12 -104 12 -432
0 -327 -3 -425 -12 -431 -7 -4 -33 -10 -58 -13 -47 -5 -64 -24 -72 -80 -3 -24
-1 -25 57 -28 32 -2 65 -8 72 -14 10 -8 13 -120 13 -533 l0 -523 30 -7 c44
-10 69 2 85 41 l14 34 120 0 c106 0 121 -2 130 -18 13 -24 12 -531 -1 -556 -9
-17 -20 -18 -124 -14 -69 3 -120 10 -129 18 -8 7 -15 27 -15 46 0 39 -24 57
-73 52 l-32 -3 -3 -100 c-2 -85 0 -102 15 -112 12 -9 65 -13 185 -13 161 0
168 -1 179 -21 7 -13 9 -40 5 -65 -5 -37 -3 -45 15 -55 24 -13 61 -5 83 17 14
13 16 64 16 404 0 214 3 395 6 404 6 14 120 16 1190 16 l1184 0 11 27 c14 36
3 72 -24 82 -12 4 -82 8 -154 9 -73 0 -137 3 -143 7 -5 3 -10 35 -10 71 0 52
4 67 20 81 11 10 20 21 20 25 0 14 -125 -4 -137 -20 -8 -9 -13 -45 -13 -84 0
-62 -2 -69 -22 -76 -13 -4 -131 -5 -263 -2 l-240 5 0 495 0 495 243 3 c156 1
250 -1 262 -8 16 -8 20 -21 20 -60 0 -61 19 -82 69 -78 l36 3 3 744 c1 541 -1
748 -9 757 -14 17 -85 18 -95 2 -5 -7 -7 -93 -5 -191 2 -128 -1 -182 -9 -192
-10 -13 -61 -15 -306 -15 -351 0 -334 6 -334 -115 0 -81 10 -95 64 -95 28 0
37 10 51 59 l10 35 255 -3 c140 -1 258 -5 262 -7 5 -3 8 -162 8 -354 0 -268
-3 -351 -12 -357 -19 -11 -490 -15 -508 -3 -10 6 -14 28 -15 70 0 73 -17 93
-79 88 l-39 -3 2 -175 c5 -411 -1 -1086 -9 -1094 -11 -11 -1646 -14 -1663 -4
-18 11 -17 3277 1 3295 11 10 100 13 434 12 306 0 424 3 434 12 15 12 19 66 6
86 -6 10 -183 13 -785 13 -428 1 -782 -2 -787 -5 -12 -8 -13 -75 -1 -94 7 -11
42 -15 148 -17 76 -2 156 -4 178 -4 22 -1 76 1 121 5 55 5 88 4 102 -4 l22
-12 0 -637 c0 -483 -3 -641 -12 -650 -18 -18 -172 -16 -188 3 -9 11 -13 163
-17 627 -3 337 -9 617 -14 622 -5 5 -11 7 -15 4 -3 -3 -5 -220 -4 -481 l1
-476 -32 -36 -32 -36 21 -43 c25 -49 31 -163 10 -184 -15 -15 -1209 -17 -1238
-2 -15 8 -17 19 -13 77 2 38 6 77 8 89 9 44 27 45 614 43 432 -1 556 1 556 11
0 9 -126 12 -567 11 l-567 -2 -40 36 c-39 36 -39 36 -47 13 -4 -13 -8 -78 -8
-146 -1 -98 -4 -125 -16 -132 -22 -14 -174 -12 -188 2 -9 9 -12 167 -12 650
l0 638 26 10 c38 15 130 12 170 -5 28 -12 40 -12 57 -3 12 7 78 14 149 16 79
3 131 9 137 16 5 6 11 34 13 61 3 46 1 50 -17 46 -11 -3 -130 -6 -264 -8 -174
-3 -247 0 -257 8 -21 17 -21 3251 0 3268 10 8 122 11 391 11 402 -1 395 -2
395 46 0 12 6 26 13 32 16 13 945 16 965 3 8 -5 17 -24 21 -42 l7 -34 743 -3
c530 -1 748 -5 758 -13 11 -10 13 -190 13 -1034 0 -825 3 -1025 13 -1033 9 -8
154 -12 442 -13 237 -2 440 -6 453 -11 23 -8 23 -11 21 -124 -2 -91 1 -118 12
-125 20 -13 73 -11 87 3 18 18 17 557 -1 582 -16 21 -42 16 -75 -15 -19 -17
-22 -30 -22 -103 0 -55 -4 -87 -12 -93 -17 -14 -768 -17 -788 -3 -12 7 -15 29
-13 102 1 51 1 248 0 438 -1 190 -1 370 0 400 4 327 2 679 -3 829 -6 171 -6
185 12 198 23 17 753 19 785 3 17 -10 19 -22 19 -119 0 -94 3 -112 21 -135 24
-31 64 -34 79 -7 6 11 10 89 10 181 0 92 -4 170 -10 181 -10 18 -27 19 -574
19 -493 0 -565 2 -576 15 -9 11 -11 35 -7 79 4 41 2 67 -6 75 -6 6 -39 11 -74
11 -51 0 -64 -3 -73 -19z"/>
<path d="M15145 11880 c-4 -11 -18 -32 -31 -45 -29 -29 -25 -40 30 -98 l36
-38 0 -163 c0 -145 2 -165 18 -179 10 -10 30 -17 45 -17 14 0 29 -5 32 -11 4
-6 7 -227 7 -491 0 -520 3 -498 -54 -498 -17 0 -31 -8 -38 -19 -6 -12 -10 -96
-10 -205 l0 -185 -45 -51 c-38 -43 -44 -54 -35 -70 6 -11 14 -20 18 -20 5 0
16 -16 25 -35 25 -52 55 -47 123 17 31 29 60 61 66 72 14 27 13 460 -2 495
-13 32 -8 972 6 1046 5 28 7 128 4 223 l-5 173 -62 60 c-47 46 -68 59 -91 59
-22 0 -32 -6 -37 -20z"/>
<path d="M7213 11228 c-6 -7 -13 -29 -17 -49 -4 -21 -13 -42 -21 -49 -18 -15
-20 -46 -4 -56 6 -3 22 -1 35 6 18 10 32 11 61 2 73 -22 130 -24 163 -7 17 9
39 13 49 10 10 -3 24 1 31 10 16 19 39 19 61 -1 28 -25 39 -8 39 57 0 46 -4
61 -16 66 -10 4 -20 0 -26 -10 -13 -24 -45 -21 -53 4 -11 34 -40 19 -43 -24
-4 -50 -32 -52 -32 -2 0 36 -20 55 -59 55 -29 0 -61 -35 -61 -65 0 -39 -23
-30 -45 18 -21 44 -44 57 -62 35z"/>
<path d="M13562 11068 c-15 -15 -16 -109 -1 -142 15 -33 36 -36 82 -14 29 14
50 18 78 13 30 -5 40 -3 45 9 5 13 15 15 48 10 22 -4 48 -13 57 -21 12 -10 28
-12 52 -8 21 4 37 3 41 -4 9 -13 86 -15 86 -2 0 6 -5 13 -11 17 -6 3 -8 17 -5
29 3 13 2 27 -4 30 -20 12 -10 45 16 55 22 9 24 13 14 25 -14 17 -86 20 -96 4
-4 -6 -20 -8 -40 -4 -30 5 -34 3 -34 -15 0 -26 -36 -27 -50 0 -8 15 -19 19
-54 16 -24 -1 -52 -8 -61 -16 -14 -11 -21 -10 -54 8 -43 24 -91 28 -109 10z
m83 -57 c8 -26 -5 -53 -24 -49 -10 2 -17 15 -19 36 -3 26 0 32 17 32 11 0 22
-8 26 -19z"/>
<path d="M4395 10893 c-41 -13 -59 -13 -102 -3 -58 14 -83 9 -90 -20 -7 -26
-35 -26 -58 0 -26 29 -85 38 -102 15 -16 -23 -17 -137 -1 -153 20 -20 86 -15
105 8 21 24 49 26 57 5 8 -21 24 -19 31 5 8 25 19 25 54 -1 42 -31 171 -38
240 -13 49 17 53 17 84 1 27 -15 43 -16 104 -8 39 5 80 8 90 7 15 -1 20 10 27
61 6 47 6 67 -4 78 -17 21 -48 19 -62 -5 -7 -11 -17 -20 -23 -20 -6 0 -16 9
-23 20 -18 29 -42 25 -55 -10 -14 -37 -37 -36 -55 3 -23 47 -49 35 -83 -38
-25 -55 -33 -65 -54 -65 -28 0 -43 23 -27 43 5 6 13 31 17 53 8 51 -2 56 -70
37z m-275 -93 c0 -23 -5 -30 -19 -30 -20 0 -37 32 -26 50 3 5 15 10 26 10 14
0 19 -7 19 -30z m240 -10 c0 -11 -7 -20 -15 -20 -8 0 -15 9 -15 20 0 11 7 20
15 20 8 0 15 -9 15 -20z"/>
<path d="M6996 9141 c-4 -6 0 -21 8 -33 20 -28 23 -207 4 -226 -9 -9 -106 -12
-372 -12 -199 0 -371 -3 -383 -6 -29 -8 -31 -52 -5 -84 18 -22 18 -22 362 -21
190 0 359 -3 375 -7 l30 -8 3 -132 3 -132 42 0 c24 0 48 5 55 12 18 18 17 611
0 626 -7 5 -26 12 -43 15 -16 3 -40 8 -51 12 -12 4 -25 2 -28 -4z"/>
<path d="M2991 8251 c-1 -270 2 -452 8 -455 5 -3 11 0 12 7 8 27 -2 897 -10
897 -5 0 -10 -202 -10 -449z"/>
<path d="M3326 8274 c-13 -13 -16 -32 -14 -87 3 -68 4 -72 31 -81 21 -8 34 -6
56 7 16 9 43 17 60 17 16 0 42 5 56 12 22 10 28 8 49 -11 12 -12 30 -19 38
-16 8 3 26 2 40 -4 29 -11 90 -1 96 17 2 6 -3 12 -11 12 -9 0 -17 15 -21 42
-7 40 -2 50 28 61 5 2 7 11 3 20 -9 23 -74 23 -99 0 -18 -16 -21 -16 -47 0
-37 21 -99 23 -107 2 -8 -19 -33 -19 -59 -1 -35 24 -81 29 -99 10z m74 -75 c0
-26 -3 -30 -22 -27 -17 2 -24 11 -26 31 -3 23 0 27 22 27 22 0 26 -4 26 -31z
m230 -19 c0 -11 -7 -20 -15 -20 -8 0 -15 9 -15 20 0 11 7 20 15 20 8 0 15 -9
15 -20z"/>
<path d="M5558 7828 c-21 -17 -36 -132 -18 -143 6 -4 17 -2 23 4 16 16 58 13
78 -5 26 -23 40 -9 37 39 -2 33 1 42 15 45 14 3 17 -4 17 -37 0 -23 7 -46 16
-55 21 -21 94 -22 94 -1 0 8 -5 15 -11 15 -5 0 -9 8 -7 18 2 11 -3 26 -10 35
-17 21 -12 51 10 55 28 5 78 -38 78 -68 0 -38 22 -63 50 -58 19 2 26 12 33 41
11 47 33 48 41 1 5 -26 12 -34 24 -32 12 3 16 12 14 36 -3 46 22 42 53 -9 33
-51 63 -51 80 1 8 23 19 36 33 38 17 3 21 -3 24 -35 3 -42 31 -63 72 -56 22 5
24 9 19 42 -3 20 -10 40 -14 46 -16 16 -10 42 13 57 12 8 18 19 14 26 -8 14
-41 15 -111 5 -41 -5 -50 -10 -59 -35 -14 -36 -40 -36 -56 1 -15 37 -27 42
-90 34 -42 -5 -51 -10 -56 -29 -8 -33 -43 -31 -74 4 -23 25 -31 27 -95 27 -65
0 -70 -2 -73 -22 -4 -28 -28 -30 -50 -3 -22 25 -91 36 -114 18z"/>
<path d="M11793 7474 c-31 -11 -48 -12 -62 -4 -25 13 -108 13 -116 0 -3 -5
-17 -10 -30 -10 -13 0 -27 5 -30 10 -3 6 -28 10 -55 10 -56 0 -60 -6 -60 -86
0 -46 3 -56 25 -70 17 -11 35 -14 57 -10 18 4 50 10 71 13 20 3 40 9 43 14 8
14 42 11 69 -7 32 -21 203 -23 257 -4 30 11 41 11 69 -1 36 -14 155 -14 196 2
21 8 23 15 23 79 0 57 -3 72 -17 77 -10 4 -23 -2 -34 -15 -20 -26 -42 -28 -59
-7 -7 9 -23 15 -34 13 -17 -2 -22 -11 -24 -51 -3 -39 -6 -48 -20 -45 -9 2 -21
20 -27 42 -13 46 -37 66 -61 51 -9 -6 -28 -39 -41 -73 -18 -45 -30 -62 -42
-60 -25 5 -37 53 -23 90 8 23 9 35 1 45 -14 16 -23 16 -76 -3z m-248 -79 c0
-27 -3 -30 -30 -30 -21 0 -31 5 -33 18 -6 33 6 49 35 45 24 -3 28 -8 28 -33z
m215 -15 c0 -11 -7 -20 -15 -20 -8 0 -15 9 -15 20 0 11 7 20 15 20 8 0 15 -9
15 -20z"/>
<path d="M9030 7335 c-41 -30 -56 -31 -70 -5 -14 27 -71 27 -95 0 -21 -24 -32
-109 -17 -137 17 -31 80 -38 108 -12 12 11 30 20 40 18 11 -1 31 1 46 5 20 6
39 2 65 -11 74 -38 190 -38 165 1 -10 16 -11 126 0 132 12 8 -10 34 -29 34 -8
0 -32 -10 -54 -22 l-39 -23 -39 23 c-22 12 -42 22 -44 22 -2 0 -18 -11 -37
-25z m-75 -80 c0 -27 -3 -30 -30 -30 -21 0 -31 5 -33 18 -5 25 17 49 42 45 16
-2 21 -10 21 -33z"/>
<path d="M9050 5880 c-8 -5 -29 -10 -46 -10 -35 0 -44 -13 -44 -66 0 -39 -21
-54 -46 -34 -10 9 -13 22 -9 42 9 37 -10 62 -35 48 -12 -6 -16 -17 -13 -30 4
-16 0 -20 -22 -20 -23 0 -26 3 -22 22 8 31 -10 48 -49 48 -43 0 -61 -29 -44
-70 8 -20 9 -34 1 -48 -24 -45 51 -69 110 -35 26 16 29 16 47 0 23 -21 59 -22
109 -3 21 8 56 17 77 21 34 6 42 3 57 -16 17 -23 18 -23 39 -4 18 16 24 17 41
7 17 -11 23 -10 39 10 11 13 22 34 26 48 3 14 9 35 14 47 10 23 0 36 -36 47
-35 11 -54 -17 -48 -67 6 -48 -6 -73 -30 -64 -14 6 -16 16 -10 57 6 47 5 50
-20 60 -47 18 -71 20 -86 10z"/>
<path d="M3176 5227 c-23 -17 -30 -118 -9 -145 12 -16 14 -16 27 1 17 23 34
22 54 -4 14 -17 30 -20 97 -22 75 -2 80 -1 77 18 -2 11 -5 30 -6 43 -1 12 -8
28 -14 34 -16 16 -15 37 3 44 27 11 72 -32 79 -74 11 -69 62 -85 80 -24 11 38
32 42 48 7 13 -30 32 -28 36 4 5 31 32 23 57 -16 28 -45 51 -42 77 12 26 54
48 59 48 12 0 -48 18 -66 67 -69 53 -2 65 8 34 33 -17 14 -22 25 -17 43 3 14
2 28 -4 31 -17 10 -11 32 10 38 11 3 20 12 20 20 0 20 -61 26 -119 12 -35 -9
-48 -18 -55 -39 -12 -33 -43 -35 -52 -1 -10 40 -28 48 -89 40 -51 -6 -56 -9
-62 -36 -7 -38 -25 -37 -56 5 -23 30 -32 34 -93 40 -53 5 -70 4 -84 -9 -18
-17 -51 -20 -65 -6 -19 17 -70 22 -89 8z m134 -87 c0 -11 -7 -20 -15 -20 -8 0
-15 9 -15 20 0 11 7 20 15 20 8 0 15 -9 15 -20z"/>
<path d="M7133 3563 c-9 -3 -13 -29 -13 -78 0 -65 3 -76 21 -85 24 -14 77 -4
102 18 14 13 22 14 37 5 14 -10 21 -9 30 2 16 20 27 19 55 -3 20 -16 41 -18
137 -17 77 1 120 6 135 15 20 13 26 12 51 -2 23 -14 46 -16 122 -12 51 3 96 7
100 9 10 6 21 121 14 140 -8 21 -37 19 -59 -5 -23 -25 -33 -25 -54 2 -28 34
-51 18 -51 -37 0 -37 -3 -45 -19 -45 -13 0 -25 15 -39 51 -18 42 -25 50 -44
47 -16 -2 -28 -18 -46 -63 -30 -77 -34 -81 -71 -65 -36 15 -39 29 -11 53 21
17 24 34 14 61 -8 22 -72 21 -96 -1 -18 -16 -21 -16 -47 0 -41 24 -98 22 -113
-3 -7 -11 -17 -20 -21 -20 -5 0 -20 9 -34 20 -24 19 -72 25 -100 13z m77 -58
c18 -22 3 -55 -26 -55 -20 0 -24 5 -24 28 0 43 25 57 50 27z"/>
<path d="M2998 3371 c-10 -44 -9 -1660 1 -1686 7 -18 8 -17 12 5 7 46 -6 1715
-13 1681z"/>
<path d="M3523 2708 c-6 -7 -13 -39 -17 -71 -6 -52 -4 -60 18 -82 30 -30 35
-31 86 -4 25 13 49 19 64 15 14 -3 28 -2 31 4 10 16 52 12 59 -6 4 -12 13 -14
31 -10 16 4 34 1 48 -9 12 -8 33 -15 48 -15 25 0 26 2 25 45 -1 25 -8 51 -14
57 -19 19 -14 37 13 50 19 9 22 14 14 25 -15 18 -74 17 -89 -2 -16 -19 -30
-19 -66 0 -42 22 -79 19 -97 -7 l-15 -23 -41 23 c-44 25 -83 28 -98 10z m75
-81 c3 -21 -1 -27 -17 -27 -21 0 -37 32 -26 50 12 20 40 5 43 -23z m232 -12
c0 -8 -7 -15 -15 -15 -8 0 -15 7 -15 15 0 8 7 15 15 15 8 0 15 -7 15 -15z"/>
</g>
</svg>
